<svg id="visual" viewBox="0 0 960 540" width="960" height="540" xmlns="http://www.w3.org/2000/svg" xmlns:xlink="http://www.w3.org/1999/xlink" version="1.1"><rect x="0" y="0" width="960" height="540" fill="#fff"></rect><path d="M0 453L22.8 441.7C45.7 430.3 91.3 407.7 137 397.5C182.7 387.3 228.3 389.7 274 397.8C319.7 406 365.3 420 411.2 431.5C457 443 503 452 548.8 451.2C594.7 450.3 640.3 439.7 686 424C731.7 408.3 777.3 387.7 823 381.5C868.7 375.3 914.3 383.7 937.2 387.8L960 392L960 541L937.2 541C914.3 541 868.7 541 823 541C777.3 541 731.7 541 686 541C640.3 541 594.7 541 548.8 541C503 541 457 541 411.2 541C365.3 541 319.7 541 274 541C228.3 541 182.7 541 137 541C91.3 541 45.7 541 22.8 541L0 541Z" fill="#393053" stroke-linecap="round" stroke-linejoin="miter"></path></svg>