<svg id="visual" viewBox="0 0 960 540" width="960" height="540" xmlns="http://www.w3.org/2000/svg" xmlns:xlink="http://www.w3.org/1999/xlink" version="1.1"><path d="M0 66L74 66L74 131L148 131L148 50L222 50L222 60L295 60L295 104L369 104L369 114L443 114L443 60L517 60L517 114L591 114L591 131L665 131L665 93L738 93L738 71L812 71L812 50L886 50L886 77L960 77L960 93L960 0L960 0L886 0L886 0L812 0L812 0L738 0L738 0L665 0L665 0L591 0L591 0L517 0L517 0L443 0L443 0L369 0L369 0L295 0L295 0L222 0L222 0L148 0L148 0L74 0L74 0L0 0Z" fill="#443c68"></path><path d="M0 179L74 179L74 303L148 303L148 217L222 217L222 174L295 174L295 276L369 276L369 255L443 255L443 206L517 206L517 217L591 217L591 293L665 293L665 260L738 260L738 201L812 201L812 141L886 141L886 255L960 255L960 244L960 91L960 75L886 75L886 48L812 48L812 69L738 69L738 91L665 91L665 129L591 129L591 112L517 112L517 58L443 58L443 112L369 112L369 102L295 102L295 58L222 58L222 48L148 48L148 129L74 129L74 64L0 64Z" fill="#70688c"></path><path d="M0 271L74 271L74 341L148 341L148 325L222 325L222 266L295 266L295 352L369 352L369 298L443 298L443 244L517 244L517 320L591 320L591 352L665 352L665 379L738 379L738 239L812 239L812 222L886 222L886 357L960 357L960 352L960 242L960 253L886 253L886 139L812 139L812 199L738 199L738 258L665 258L665 291L591 291L591 215L517 215L517 204L443 204L443 253L369 253L369 274L295 274L295 172L222 172L222 215L148 215L148 301L74 301L74 177L0 177Z" fill="#9e98b1"></path><path d="M0 357L74 357L74 428L148 428L148 357L222 357L222 314L295 314L295 438L369 438L369 374L443 374L443 309L517 309L517 379L591 379L591 390L665 390L665 411L738 411L738 298L812 298L812 314L886 314L886 428L960 428L960 428L960 350L960 355L886 355L886 220L812 220L812 237L738 237L738 377L665 377L665 350L591 350L591 318L517 318L517 242L443 242L443 296L369 296L369 350L295 350L295 264L222 264L222 323L148 323L148 339L74 339L74 269L0 269Z" fill="#cecad7"></path><path d="M0 541L74 541L74 541L148 541L148 541L222 541L222 541L295 541L295 541L369 541L369 541L443 541L443 541L517 541L517 541L591 541L591 541L665 541L665 541L738 541L738 541L812 541L812 541L886 541L886 541L960 541L960 541L960 426L960 426L886 426L886 312L812 312L812 296L738 296L738 409L665 409L665 388L591 388L591 377L517 377L517 307L443 307L443 372L369 372L369 436L295 436L295 312L222 312L222 355L148 355L148 426L74 426L74 355L0 355Z" fill="#ffffff"></path></svg>